<?xml version="1.0" encoding="utf-8" standalone="no"?>
<!DOCTYPE svg PUBLIC "-//W3C//DTD SVG 1.1//EN"
  "http://www.w3.org/Graphics/SVG/1.1/DTD/svg11.dtd">
<svg xmlns:xlink="http://www.w3.org/1999/xlink" width="393.378125pt" height="394.31625pt" viewBox="0 0 393.378125 394.31625" xmlns="http://www.w3.org/2000/svg" version="1.1">
 <metadata>
  <rdf:RDF xmlns:dc="http://purl.org/dc/elements/1.1/" xmlns:cc="http://creativecommons.org/ns#" xmlns:rdf="http://www.w3.org/1999/02/22-rdf-syntax-ns#">
   <cc:Work>
    <dc:type rdf:resource="http://purl.org/dc/dcmitype/StillImage"/>
    <dc:date>2023-12-15T15:48:26.993200</dc:date>
    <dc:format>image/svg+xml</dc:format>
    <dc:creator>
     <cc:Agent>
      <dc:title>Matplotlib v3.5.1, https://matplotlib.org/</dc:title>
     </cc:Agent>
    </dc:creator>
   </cc:Work>
  </rdf:RDF>
 </metadata>
 <defs>
  <style type="text/css">*{stroke-linejoin: round; stroke-linecap: butt}</style>
 </defs>
 <g id="figure_1">
  <g id="patch_1">
   <path d="M 0 394.31625 
L 393.378125 394.31625 
L 393.378125 0 
L 0 0 
z
" style="fill: #ffffff"/>
  </g>
  <g id="axes_1">
   <g id="patch_2">
    <path d="M 51.378125 356.76 
L 386.178125 356.76 
L 386.178125 24.12 
L 51.378125 24.12 
z
" style="fill: #ffffff"/>
   </g>
   <g id="matplotlib.axis_1">
    <g id="xtick_1">
     <g id="line2d_1">
      <defs>
       <path id="m1853229a5f" d="M 0 0 
L 0 3.5 
" style="stroke: #000000; stroke-width: 0.8"/>
      </defs>
      <g>
       <use xlink:href="#m1853229a5f" x="66.596307" y="356.76" style="stroke: #000000; stroke-width: 0.8"/>
      </g>
     </g>
     <g id="text_1">
      <!-- $\mathdefault{10^{0}}$ -->
      <g transform="translate(57.796307 371.358437)scale(0.1 -0.1)">
       <defs>
        <path id="DejaVuSans-31" d="M 794 531 
L 1825 531 
L 1825 4091 
L 703 3866 
L 703 4441 
L 1819 4666 
L 2450 4666 
L 2450 531 
L 3481 531 
L 3481 0 
L 794 0 
L 794 531 
z
" transform="scale(0.015625)"/>
        <path id="DejaVuSans-30" d="M 2034 4250 
Q 1547 4250 1301 3770 
Q 1056 3291 1056 2328 
Q 1056 1369 1301 889 
Q 1547 409 2034 409 
Q 2525 409 2770 889 
Q 3016 1369 3016 2328 
Q 3016 3291 2770 3770 
Q 2525 4250 2034 4250 
z
M 2034 4750 
Q 2819 4750 3233 4129 
Q 3647 3509 3647 2328 
Q 3647 1150 3233 529 
Q 2819 -91 2034 -91 
Q 1250 -91 836 529 
Q 422 1150 422 2328 
Q 422 3509 836 4129 
Q 1250 4750 2034 4750 
z
" transform="scale(0.015625)"/>
       </defs>
       <use xlink:href="#DejaVuSans-31" transform="translate(0 0.765625)"/>
       <use xlink:href="#DejaVuSans-30" transform="translate(63.623047 0.765625)"/>
       <use xlink:href="#DejaVuSans-30" transform="translate(128.203125 39.046875)scale(0.7)"/>
      </g>
     </g>
    </g>
    <g id="xtick_2">
     <g id="line2d_2">
      <g>
       <use xlink:href="#m1853229a5f" x="168.050852" y="356.76" style="stroke: #000000; stroke-width: 0.8"/>
      </g>
     </g>
     <g id="text_2">
      <!-- $\mathdefault{10^{1}}$ -->
      <g transform="translate(159.250852 371.358437)scale(0.1 -0.1)">
       <use xlink:href="#DejaVuSans-31" transform="translate(0 0.684375)"/>
       <use xlink:href="#DejaVuSans-30" transform="translate(63.623047 0.684375)"/>
       <use xlink:href="#DejaVuSans-31" transform="translate(128.203125 38.965625)scale(0.7)"/>
      </g>
     </g>
    </g>
    <g id="xtick_3">
     <g id="line2d_3">
      <g>
       <use xlink:href="#m1853229a5f" x="269.505398" y="356.76" style="stroke: #000000; stroke-width: 0.8"/>
      </g>
     </g>
     <g id="text_3">
      <!-- $\mathdefault{10^{2}}$ -->
      <g transform="translate(260.705398 371.358437)scale(0.1 -0.1)">
       <defs>
        <path id="DejaVuSans-32" d="M 1228 531 
L 3431 531 
L 3431 0 
L 469 0 
L 469 531 
Q 828 903 1448 1529 
Q 2069 2156 2228 2338 
Q 2531 2678 2651 2914 
Q 2772 3150 2772 3378 
Q 2772 3750 2511 3984 
Q 2250 4219 1831 4219 
Q 1534 4219 1204 4116 
Q 875 4013 500 3803 
L 500 4441 
Q 881 4594 1212 4672 
Q 1544 4750 1819 4750 
Q 2544 4750 2975 4387 
Q 3406 4025 3406 3419 
Q 3406 3131 3298 2873 
Q 3191 2616 2906 2266 
Q 2828 2175 2409 1742 
Q 1991 1309 1228 531 
z
" transform="scale(0.015625)"/>
       </defs>
       <use xlink:href="#DejaVuSans-31" transform="translate(0 0.765625)"/>
       <use xlink:href="#DejaVuSans-30" transform="translate(63.623047 0.765625)"/>
       <use xlink:href="#DejaVuSans-32" transform="translate(128.203125 39.046875)scale(0.7)"/>
      </g>
     </g>
    </g>
    <g id="xtick_4">
     <g id="line2d_4">
      <g>
       <use xlink:href="#m1853229a5f" x="370.959943" y="356.76" style="stroke: #000000; stroke-width: 0.8"/>
      </g>
     </g>
     <g id="text_4">
      <!-- $\mathdefault{10^{3}}$ -->
      <g transform="translate(362.159943 371.358437)scale(0.1 -0.1)">
       <defs>
        <path id="DejaVuSans-33" d="M 2597 2516 
Q 3050 2419 3304 2112 
Q 3559 1806 3559 1356 
Q 3559 666 3084 287 
Q 2609 -91 1734 -91 
Q 1441 -91 1130 -33 
Q 819 25 488 141 
L 488 750 
Q 750 597 1062 519 
Q 1375 441 1716 441 
Q 2309 441 2620 675 
Q 2931 909 2931 1356 
Q 2931 1769 2642 2001 
Q 2353 2234 1838 2234 
L 1294 2234 
L 1294 2753 
L 1863 2753 
Q 2328 2753 2575 2939 
Q 2822 3125 2822 3475 
Q 2822 3834 2567 4026 
Q 2313 4219 1838 4219 
Q 1578 4219 1281 4162 
Q 984 4106 628 3988 
L 628 4550 
Q 988 4650 1302 4700 
Q 1616 4750 1894 4750 
Q 2613 4750 3031 4423 
Q 3450 4097 3450 3541 
Q 3450 3153 3228 2886 
Q 3006 2619 2597 2516 
z
" transform="scale(0.015625)"/>
       </defs>
       <use xlink:href="#DejaVuSans-31" transform="translate(0 0.765625)"/>
       <use xlink:href="#DejaVuSans-30" transform="translate(63.623047 0.765625)"/>
       <use xlink:href="#DejaVuSans-33" transform="translate(128.203125 39.046875)scale(0.7)"/>
      </g>
     </g>
    </g>
    <g id="xtick_5">
     <g id="line2d_5">
      <defs>
       <path id="mf38815e22b" d="M 0 0 
L 0 2 
" style="stroke: #000000; stroke-width: 0.6"/>
      </defs>
      <g>
       <use xlink:href="#mf38815e22b" x="56.764345" y="356.76" style="stroke: #000000; stroke-width: 0.6"/>
      </g>
     </g>
    </g>
    <g id="xtick_6">
     <g id="line2d_6">
      <g>
       <use xlink:href="#mf38815e22b" x="61.954001" y="356.76" style="stroke: #000000; stroke-width: 0.6"/>
      </g>
     </g>
    </g>
    <g id="xtick_7">
     <g id="line2d_7">
      <g>
       <use xlink:href="#mf38815e22b" x="97.137168" y="356.76" style="stroke: #000000; stroke-width: 0.6"/>
      </g>
     </g>
    </g>
    <g id="xtick_8">
     <g id="line2d_8">
      <g>
       <use xlink:href="#mf38815e22b" x="115.002427" y="356.76" style="stroke: #000000; stroke-width: 0.6"/>
      </g>
     </g>
    </g>
    <g id="xtick_9">
     <g id="line2d_9">
      <g>
       <use xlink:href="#mf38815e22b" x="127.67803" y="356.76" style="stroke: #000000; stroke-width: 0.6"/>
      </g>
     </g>
    </g>
    <g id="xtick_10">
     <g id="line2d_10">
      <g>
       <use xlink:href="#mf38815e22b" x="137.509991" y="356.76" style="stroke: #000000; stroke-width: 0.6"/>
      </g>
     </g>
    </g>
    <g id="xtick_11">
     <g id="line2d_11">
      <g>
       <use xlink:href="#mf38815e22b" x="145.543288" y="356.76" style="stroke: #000000; stroke-width: 0.6"/>
      </g>
     </g>
    </g>
    <g id="xtick_12">
     <g id="line2d_12">
      <g>
       <use xlink:href="#mf38815e22b" x="152.335344" y="356.76" style="stroke: #000000; stroke-width: 0.6"/>
      </g>
     </g>
    </g>
    <g id="xtick_13">
     <g id="line2d_13">
      <g>
       <use xlink:href="#mf38815e22b" x="158.218891" y="356.76" style="stroke: #000000; stroke-width: 0.6"/>
      </g>
     </g>
    </g>
    <g id="xtick_14">
     <g id="line2d_14">
      <g>
       <use xlink:href="#mf38815e22b" x="163.408547" y="356.76" style="stroke: #000000; stroke-width: 0.6"/>
      </g>
     </g>
    </g>
    <g id="xtick_15">
     <g id="line2d_15">
      <g>
       <use xlink:href="#mf38815e22b" x="198.591714" y="356.76" style="stroke: #000000; stroke-width: 0.6"/>
      </g>
     </g>
    </g>
    <g id="xtick_16">
     <g id="line2d_16">
      <g>
       <use xlink:href="#mf38815e22b" x="216.456972" y="356.76" style="stroke: #000000; stroke-width: 0.6"/>
      </g>
     </g>
    </g>
    <g id="xtick_17">
     <g id="line2d_17">
      <g>
       <use xlink:href="#mf38815e22b" x="229.132575" y="356.76" style="stroke: #000000; stroke-width: 0.6"/>
      </g>
     </g>
    </g>
    <g id="xtick_18">
     <g id="line2d_18">
      <g>
       <use xlink:href="#mf38815e22b" x="238.964536" y="356.76" style="stroke: #000000; stroke-width: 0.6"/>
      </g>
     </g>
    </g>
    <g id="xtick_19">
     <g id="line2d_19">
      <g>
       <use xlink:href="#mf38815e22b" x="246.997834" y="356.76" style="stroke: #000000; stroke-width: 0.6"/>
      </g>
     </g>
    </g>
    <g id="xtick_20">
     <g id="line2d_20">
      <g>
       <use xlink:href="#mf38815e22b" x="253.78989" y="356.76" style="stroke: #000000; stroke-width: 0.6"/>
      </g>
     </g>
    </g>
    <g id="xtick_21">
     <g id="line2d_21">
      <g>
       <use xlink:href="#mf38815e22b" x="259.673436" y="356.76" style="stroke: #000000; stroke-width: 0.6"/>
      </g>
     </g>
    </g>
    <g id="xtick_22">
     <g id="line2d_22">
      <g>
       <use xlink:href="#mf38815e22b" x="264.863092" y="356.76" style="stroke: #000000; stroke-width: 0.6"/>
      </g>
     </g>
    </g>
    <g id="xtick_23">
     <g id="line2d_23">
      <g>
       <use xlink:href="#mf38815e22b" x="300.046259" y="356.76" style="stroke: #000000; stroke-width: 0.6"/>
      </g>
     </g>
    </g>
    <g id="xtick_24">
     <g id="line2d_24">
      <g>
       <use xlink:href="#mf38815e22b" x="317.911518" y="356.76" style="stroke: #000000; stroke-width: 0.6"/>
      </g>
     </g>
    </g>
    <g id="xtick_25">
     <g id="line2d_25">
      <g>
       <use xlink:href="#mf38815e22b" x="330.58712" y="356.76" style="stroke: #000000; stroke-width: 0.6"/>
      </g>
     </g>
    </g>
    <g id="xtick_26">
     <g id="line2d_26">
      <g>
       <use xlink:href="#mf38815e22b" x="340.419082" y="356.76" style="stroke: #000000; stroke-width: 0.6"/>
      </g>
     </g>
    </g>
    <g id="xtick_27">
     <g id="line2d_27">
      <g>
       <use xlink:href="#mf38815e22b" x="348.452379" y="356.76" style="stroke: #000000; stroke-width: 0.6"/>
      </g>
     </g>
    </g>
    <g id="xtick_28">
     <g id="line2d_28">
      <g>
       <use xlink:href="#mf38815e22b" x="355.244435" y="356.76" style="stroke: #000000; stroke-width: 0.6"/>
      </g>
     </g>
    </g>
    <g id="xtick_29">
     <g id="line2d_29">
      <g>
       <use xlink:href="#mf38815e22b" x="361.127982" y="356.76" style="stroke: #000000; stroke-width: 0.6"/>
      </g>
     </g>
    </g>
    <g id="xtick_30">
     <g id="line2d_30">
      <g>
       <use xlink:href="#mf38815e22b" x="366.317638" y="356.76" style="stroke: #000000; stroke-width: 0.6"/>
      </g>
     </g>
    </g>
    <g id="text_5">
     <!-- $E_\nu [GeV]$ -->
     <g transform="translate(199.228125 385.036562)scale(0.1 -0.1)">
      <defs>
       <path id="DejaVuSans-Oblique-45" d="M 1081 4666 
L 4031 4666 
L 3928 4134 
L 1606 4134 
L 1338 2753 
L 3566 2753 
L 3463 2222 
L 1234 2222 
L 909 531 
L 3284 531 
L 3181 0 
L 172 0 
L 1081 4666 
z
" transform="scale(0.015625)"/>
       <path id="DejaVuSans-Oblique-3bd" d="M 959 0 
L 572 3500 
L 1191 3500 
L 1522 563 
Q 1972 950 2391 1488 
Q 2706 1891 2788 2241 
Q 2825 2406 2809 2719 
Q 2794 3091 2544 3500 
L 3125 3500 
L 3125 3500 
Q 3288 3222 3353 2834 
Q 3416 2478 3369 2234 
Q 3250 1622 2719 1075 
Q 2025 363 1572 0 
L 959 0 
z
" transform="scale(0.015625)"/>
       <path id="DejaVuSans-5b" d="M 550 4863 
L 1875 4863 
L 1875 4416 
L 1125 4416 
L 1125 -397 
L 1875 -397 
L 1875 -844 
L 550 -844 
L 550 4863 
z
" transform="scale(0.015625)"/>
       <path id="DejaVuSans-Oblique-47" d="M 3494 697 
L 3738 1919 
L 2700 1919 
L 2797 2438 
L 4453 2438 
L 4050 384 
Q 3634 156 3143 32 
Q 2653 -91 2156 -91 
Q 1278 -91 783 396 
Q 288 884 288 1753 
Q 288 2475 589 3126 
Q 891 3778 1422 4213 
Q 1756 4484 2153 4617 
Q 2550 4750 3034 4750 
Q 3472 4750 3873 4639 
Q 4275 4528 4641 4306 
L 4513 3634 
Q 4231 3928 3853 4083 
Q 3475 4238 3047 4238 
Q 2550 4238 2172 4048 
Q 1794 3859 1497 3463 
Q 1244 3125 1098 2667 
Q 953 2209 953 1734 
Q 953 1081 1287 751 
Q 1622 422 2284 422 
Q 2616 422 2925 492 
Q 3234 563 3494 697 
z
" transform="scale(0.015625)"/>
       <path id="DejaVuSans-Oblique-65" d="M 3078 2063 
Q 3088 2113 3092 2166 
Q 3097 2219 3097 2272 
Q 3097 2653 2873 2875 
Q 2650 3097 2266 3097 
Q 1838 3097 1509 2826 
Q 1181 2556 1013 2059 
L 3078 2063 
z
M 3578 1613 
L 903 1613 
Q 884 1494 878 1425 
Q 872 1356 872 1306 
Q 872 872 1139 634 
Q 1406 397 1894 397 
Q 2269 397 2603 481 
Q 2938 566 3225 728 
L 3116 159 
Q 2806 34 2476 -28 
Q 2147 -91 1806 -91 
Q 1078 -91 686 257 
Q 294 606 294 1247 
Q 294 1794 489 2264 
Q 684 2734 1063 3103 
Q 1306 3334 1642 3459 
Q 1978 3584 2356 3584 
Q 2950 3584 3301 3228 
Q 3653 2872 3653 2272 
Q 3653 2128 3634 1964 
Q 3616 1800 3578 1613 
z
" transform="scale(0.015625)"/>
       <path id="DejaVuSans-Oblique-56" d="M 1319 0 
L 500 4666 
L 1119 4666 
L 1797 653 
L 4063 4666 
L 4750 4666 
L 2053 0 
L 1319 0 
z
" transform="scale(0.015625)"/>
       <path id="DejaVuSans-5d" d="M 1947 4863 
L 1947 -844 
L 622 -844 
L 622 -397 
L 1369 -397 
L 1369 4416 
L 622 4416 
L 622 4863 
L 1947 4863 
z
" transform="scale(0.015625)"/>
      </defs>
      <use xlink:href="#DejaVuSans-Oblique-45" transform="translate(0 0.015625)"/>
      <use xlink:href="#DejaVuSans-Oblique-3bd" transform="translate(63.183594 -16.390625)scale(0.7)"/>
      <use xlink:href="#DejaVuSans-5b" transform="translate(105.019531 0.015625)"/>
      <use xlink:href="#DejaVuSans-Oblique-47" transform="translate(144.033203 0.015625)"/>
      <use xlink:href="#DejaVuSans-Oblique-65" transform="translate(221.523438 0.015625)"/>
      <use xlink:href="#DejaVuSans-Oblique-56" transform="translate(283.046875 0.015625)"/>
      <use xlink:href="#DejaVuSans-5d" transform="translate(351.455078 0.015625)"/>
     </g>
    </g>
   </g>
   <g id="matplotlib.axis_2">
    <g id="ytick_1">
     <g id="line2d_31">
      <defs>
       <path id="mb2fccbab0a" d="M 0 0 
L -3.5 0 
" style="stroke: #000000; stroke-width: 0.8"/>
      </defs>
      <g>
       <use xlink:href="#mb2fccbab0a" x="51.378125" y="313.346659" style="stroke: #000000; stroke-width: 0.8"/>
      </g>
     </g>
     <g id="text_6">
      <!-- $\mathdefault{10^{-5}}$ -->
      <g transform="translate(20.878125 317.145878)scale(0.1 -0.1)">
       <defs>
        <path id="DejaVuSans-2212" d="M 678 2272 
L 4684 2272 
L 4684 1741 
L 678 1741 
L 678 2272 
z
" transform="scale(0.015625)"/>
        <path id="DejaVuSans-35" d="M 691 4666 
L 3169 4666 
L 3169 4134 
L 1269 4134 
L 1269 2991 
Q 1406 3038 1543 3061 
Q 1681 3084 1819 3084 
Q 2600 3084 3056 2656 
Q 3513 2228 3513 1497 
Q 3513 744 3044 326 
Q 2575 -91 1722 -91 
Q 1428 -91 1123 -41 
Q 819 9 494 109 
L 494 744 
Q 775 591 1075 516 
Q 1375 441 1709 441 
Q 2250 441 2565 725 
Q 2881 1009 2881 1497 
Q 2881 1984 2565 2268 
Q 2250 2553 1709 2553 
Q 1456 2553 1204 2497 
Q 953 2441 691 2322 
L 691 4666 
z
" transform="scale(0.015625)"/>
       </defs>
       <use xlink:href="#DejaVuSans-31" transform="translate(0 0.684375)"/>
       <use xlink:href="#DejaVuSans-30" transform="translate(63.623047 0.684375)"/>
       <use xlink:href="#DejaVuSans-2212" transform="translate(128.203125 38.965625)scale(0.7)"/>
       <use xlink:href="#DejaVuSans-35" transform="translate(186.855469 38.965625)scale(0.7)"/>
      </g>
     </g>
    </g>
    <g id="ytick_2">
     <g id="line2d_32">
      <g>
       <use xlink:href="#mb2fccbab0a" x="51.378125" y="258.525183" style="stroke: #000000; stroke-width: 0.8"/>
      </g>
     </g>
     <g id="text_7">
      <!-- $\mathdefault{10^{-4}}$ -->
      <g transform="translate(20.878125 262.324402)scale(0.1 -0.1)">
       <defs>
        <path id="DejaVuSans-34" d="M 2419 4116 
L 825 1625 
L 2419 1625 
L 2419 4116 
z
M 2253 4666 
L 3047 4666 
L 3047 1625 
L 3713 1625 
L 3713 1100 
L 3047 1100 
L 3047 0 
L 2419 0 
L 2419 1100 
L 313 1100 
L 313 1709 
L 2253 4666 
z
" transform="scale(0.015625)"/>
       </defs>
       <use xlink:href="#DejaVuSans-31" transform="translate(0 0.684375)"/>
       <use xlink:href="#DejaVuSans-30" transform="translate(63.623047 0.684375)"/>
       <use xlink:href="#DejaVuSans-2212" transform="translate(128.203125 38.965625)scale(0.7)"/>
       <use xlink:href="#DejaVuSans-34" transform="translate(186.855469 38.965625)scale(0.7)"/>
      </g>
     </g>
    </g>
    <g id="ytick_3">
     <g id="line2d_33">
      <g>
       <use xlink:href="#mb2fccbab0a" x="51.378125" y="203.703707" style="stroke: #000000; stroke-width: 0.8"/>
      </g>
     </g>
     <g id="text_8">
      <!-- $\mathdefault{10^{-3}}$ -->
      <g transform="translate(20.878125 207.502925)scale(0.1 -0.1)">
       <use xlink:href="#DejaVuSans-31" transform="translate(0 0.765625)"/>
       <use xlink:href="#DejaVuSans-30" transform="translate(63.623047 0.765625)"/>
       <use xlink:href="#DejaVuSans-2212" transform="translate(128.203125 39.046875)scale(0.7)"/>
       <use xlink:href="#DejaVuSans-33" transform="translate(186.855469 39.046875)scale(0.7)"/>
      </g>
     </g>
    </g>
    <g id="ytick_4">
     <g id="line2d_34">
      <g>
       <use xlink:href="#mb2fccbab0a" x="51.378125" y="148.88223" style="stroke: #000000; stroke-width: 0.8"/>
      </g>
     </g>
     <g id="text_9">
      <!-- $\mathdefault{10^{-2}}$ -->
      <g transform="translate(20.878125 152.681449)scale(0.1 -0.1)">
       <use xlink:href="#DejaVuSans-31" transform="translate(0 0.765625)"/>
       <use xlink:href="#DejaVuSans-30" transform="translate(63.623047 0.765625)"/>
       <use xlink:href="#DejaVuSans-2212" transform="translate(128.203125 39.046875)scale(0.7)"/>
       <use xlink:href="#DejaVuSans-32" transform="translate(186.855469 39.046875)scale(0.7)"/>
      </g>
     </g>
    </g>
    <g id="ytick_5">
     <g id="line2d_35">
      <g>
       <use xlink:href="#mb2fccbab0a" x="51.378125" y="94.060754" style="stroke: #000000; stroke-width: 0.8"/>
      </g>
     </g>
     <g id="text_10">
      <!-- $\mathdefault{10^{-1}}$ -->
      <g transform="translate(20.878125 97.859973)scale(0.1 -0.1)">
       <use xlink:href="#DejaVuSans-31" transform="translate(0 0.684375)"/>
       <use xlink:href="#DejaVuSans-30" transform="translate(63.623047 0.684375)"/>
       <use xlink:href="#DejaVuSans-2212" transform="translate(128.203125 38.965625)scale(0.7)"/>
       <use xlink:href="#DejaVuSans-31" transform="translate(186.855469 38.965625)scale(0.7)"/>
      </g>
     </g>
    </g>
    <g id="ytick_6">
     <g id="line2d_36">
      <g>
       <use xlink:href="#mb2fccbab0a" x="51.378125" y="39.239278" style="stroke: #000000; stroke-width: 0.8"/>
      </g>
     </g>
     <g id="text_11">
      <!-- $\mathdefault{10^{0}}$ -->
      <g transform="translate(26.778125 43.038497)scale(0.1 -0.1)">
       <use xlink:href="#DejaVuSans-31" transform="translate(0 0.765625)"/>
       <use xlink:href="#DejaVuSans-30" transform="translate(63.623047 0.765625)"/>
       <use xlink:href="#DejaVuSans-30" transform="translate(128.203125 39.046875)scale(0.7)"/>
      </g>
     </g>
    </g>
    <g id="ytick_7">
     <g id="line2d_37">
      <defs>
       <path id="m755b511613" d="M 0 0 
L -2 0 
" style="stroke: #000000; stroke-width: 0.6"/>
      </defs>
      <g>
       <use xlink:href="#m755b511613" x="51.378125" y="351.665226" style="stroke: #000000; stroke-width: 0.6"/>
      </g>
     </g>
    </g>
    <g id="ytick_8">
     <g id="line2d_38">
      <g>
       <use xlink:href="#m755b511613" x="51.378125" y="342.011644" style="stroke: #000000; stroke-width: 0.6"/>
      </g>
     </g>
    </g>
    <g id="ytick_9">
     <g id="line2d_39">
      <g>
       <use xlink:href="#m755b511613" x="51.378125" y="335.162318" style="stroke: #000000; stroke-width: 0.6"/>
      </g>
     </g>
    </g>
    <g id="ytick_10">
     <g id="line2d_40">
      <g>
       <use xlink:href="#m755b511613" x="51.378125" y="329.849568" style="stroke: #000000; stroke-width: 0.6"/>
      </g>
     </g>
    </g>
    <g id="ytick_11">
     <g id="line2d_41">
      <g>
       <use xlink:href="#m755b511613" x="51.378125" y="325.508735" style="stroke: #000000; stroke-width: 0.6"/>
      </g>
     </g>
    </g>
    <g id="ytick_12">
     <g id="line2d_42">
      <g>
       <use xlink:href="#m755b511613" x="51.378125" y="321.838613" style="stroke: #000000; stroke-width: 0.6"/>
      </g>
     </g>
    </g>
    <g id="ytick_13">
     <g id="line2d_43">
      <g>
       <use xlink:href="#m755b511613" x="51.378125" y="318.659409" style="stroke: #000000; stroke-width: 0.6"/>
      </g>
     </g>
    </g>
    <g id="ytick_14">
     <g id="line2d_44">
      <g>
       <use xlink:href="#m755b511613" x="51.378125" y="315.855152" style="stroke: #000000; stroke-width: 0.6"/>
      </g>
     </g>
    </g>
    <g id="ytick_15">
     <g id="line2d_45">
      <g>
       <use xlink:href="#m755b511613" x="51.378125" y="296.84375" style="stroke: #000000; stroke-width: 0.6"/>
      </g>
     </g>
    </g>
    <g id="ytick_16">
     <g id="line2d_46">
      <g>
       <use xlink:href="#m755b511613" x="51.378125" y="287.190167" style="stroke: #000000; stroke-width: 0.6"/>
      </g>
     </g>
    </g>
    <g id="ytick_17">
     <g id="line2d_47">
      <g>
       <use xlink:href="#m755b511613" x="51.378125" y="280.340841" style="stroke: #000000; stroke-width: 0.6"/>
      </g>
     </g>
    </g>
    <g id="ytick_18">
     <g id="line2d_48">
      <g>
       <use xlink:href="#m755b511613" x="51.378125" y="275.028091" style="stroke: #000000; stroke-width: 0.6"/>
      </g>
     </g>
    </g>
    <g id="ytick_19">
     <g id="line2d_49">
      <g>
       <use xlink:href="#m755b511613" x="51.378125" y="270.687259" style="stroke: #000000; stroke-width: 0.6"/>
      </g>
     </g>
    </g>
    <g id="ytick_20">
     <g id="line2d_50">
      <g>
       <use xlink:href="#m755b511613" x="51.378125" y="267.017137" style="stroke: #000000; stroke-width: 0.6"/>
      </g>
     </g>
    </g>
    <g id="ytick_21">
     <g id="line2d_51">
      <g>
       <use xlink:href="#m755b511613" x="51.378125" y="263.837933" style="stroke: #000000; stroke-width: 0.6"/>
      </g>
     </g>
    </g>
    <g id="ytick_22">
     <g id="line2d_52">
      <g>
       <use xlink:href="#m755b511613" x="51.378125" y="261.033676" style="stroke: #000000; stroke-width: 0.6"/>
      </g>
     </g>
    </g>
    <g id="ytick_23">
     <g id="line2d_53">
      <g>
       <use xlink:href="#m755b511613" x="51.378125" y="242.022274" style="stroke: #000000; stroke-width: 0.6"/>
      </g>
     </g>
    </g>
    <g id="ytick_24">
     <g id="line2d_54">
      <g>
       <use xlink:href="#m755b511613" x="51.378125" y="232.368691" style="stroke: #000000; stroke-width: 0.6"/>
      </g>
     </g>
    </g>
    <g id="ytick_25">
     <g id="line2d_55">
      <g>
       <use xlink:href="#m755b511613" x="51.378125" y="225.519365" style="stroke: #000000; stroke-width: 0.6"/>
      </g>
     </g>
    </g>
    <g id="ytick_26">
     <g id="line2d_56">
      <g>
       <use xlink:href="#m755b511613" x="51.378125" y="220.206615" style="stroke: #000000; stroke-width: 0.6"/>
      </g>
     </g>
    </g>
    <g id="ytick_27">
     <g id="line2d_57">
      <g>
       <use xlink:href="#m755b511613" x="51.378125" y="215.865783" style="stroke: #000000; stroke-width: 0.6"/>
      </g>
     </g>
    </g>
    <g id="ytick_28">
     <g id="line2d_58">
      <g>
       <use xlink:href="#m755b511613" x="51.378125" y="212.195661" style="stroke: #000000; stroke-width: 0.6"/>
      </g>
     </g>
    </g>
    <g id="ytick_29">
     <g id="line2d_59">
      <g>
       <use xlink:href="#m755b511613" x="51.378125" y="209.016457" style="stroke: #000000; stroke-width: 0.6"/>
      </g>
     </g>
    </g>
    <g id="ytick_30">
     <g id="line2d_60">
      <g>
       <use xlink:href="#m755b511613" x="51.378125" y="206.2122" style="stroke: #000000; stroke-width: 0.6"/>
      </g>
     </g>
    </g>
    <g id="ytick_31">
     <g id="line2d_61">
      <g>
       <use xlink:href="#m755b511613" x="51.378125" y="187.200798" style="stroke: #000000; stroke-width: 0.6"/>
      </g>
     </g>
    </g>
    <g id="ytick_32">
     <g id="line2d_62">
      <g>
       <use xlink:href="#m755b511613" x="51.378125" y="177.547215" style="stroke: #000000; stroke-width: 0.6"/>
      </g>
     </g>
    </g>
    <g id="ytick_33">
     <g id="line2d_63">
      <g>
       <use xlink:href="#m755b511613" x="51.378125" y="170.697889" style="stroke: #000000; stroke-width: 0.6"/>
      </g>
     </g>
    </g>
    <g id="ytick_34">
     <g id="line2d_64">
      <g>
       <use xlink:href="#m755b511613" x="51.378125" y="165.385139" style="stroke: #000000; stroke-width: 0.6"/>
      </g>
     </g>
    </g>
    <g id="ytick_35">
     <g id="line2d_65">
      <g>
       <use xlink:href="#m755b511613" x="51.378125" y="161.044306" style="stroke: #000000; stroke-width: 0.6"/>
      </g>
     </g>
    </g>
    <g id="ytick_36">
     <g id="line2d_66">
      <g>
       <use xlink:href="#m755b511613" x="51.378125" y="157.374185" style="stroke: #000000; stroke-width: 0.6"/>
      </g>
     </g>
    </g>
    <g id="ytick_37">
     <g id="line2d_67">
      <g>
       <use xlink:href="#m755b511613" x="51.378125" y="154.19498" style="stroke: #000000; stroke-width: 0.6"/>
      </g>
     </g>
    </g>
    <g id="ytick_38">
     <g id="line2d_68">
      <g>
       <use xlink:href="#m755b511613" x="51.378125" y="151.390724" style="stroke: #000000; stroke-width: 0.6"/>
      </g>
     </g>
    </g>
    <g id="ytick_39">
     <g id="line2d_69">
      <g>
       <use xlink:href="#m755b511613" x="51.378125" y="132.379322" style="stroke: #000000; stroke-width: 0.6"/>
      </g>
     </g>
    </g>
    <g id="ytick_40">
     <g id="line2d_70">
      <g>
       <use xlink:href="#m755b511613" x="51.378125" y="122.725739" style="stroke: #000000; stroke-width: 0.6"/>
      </g>
     </g>
    </g>
    <g id="ytick_41">
     <g id="line2d_71">
      <g>
       <use xlink:href="#m755b511613" x="51.378125" y="115.876413" style="stroke: #000000; stroke-width: 0.6"/>
      </g>
     </g>
    </g>
    <g id="ytick_42">
     <g id="line2d_72">
      <g>
       <use xlink:href="#m755b511613" x="51.378125" y="110.563663" style="stroke: #000000; stroke-width: 0.6"/>
      </g>
     </g>
    </g>
    <g id="ytick_43">
     <g id="line2d_73">
      <g>
       <use xlink:href="#m755b511613" x="51.378125" y="106.22283" style="stroke: #000000; stroke-width: 0.6"/>
      </g>
     </g>
    </g>
    <g id="ytick_44">
     <g id="line2d_74">
      <g>
       <use xlink:href="#m755b511613" x="51.378125" y="102.552708" style="stroke: #000000; stroke-width: 0.6"/>
      </g>
     </g>
    </g>
    <g id="ytick_45">
     <g id="line2d_75">
      <g>
       <use xlink:href="#m755b511613" x="51.378125" y="99.373504" style="stroke: #000000; stroke-width: 0.6"/>
      </g>
     </g>
    </g>
    <g id="ytick_46">
     <g id="line2d_76">
      <g>
       <use xlink:href="#m755b511613" x="51.378125" y="96.569247" style="stroke: #000000; stroke-width: 0.6"/>
      </g>
     </g>
    </g>
    <g id="ytick_47">
     <g id="line2d_77">
      <g>
       <use xlink:href="#m755b511613" x="51.378125" y="77.557846" style="stroke: #000000; stroke-width: 0.6"/>
      </g>
     </g>
    </g>
    <g id="ytick_48">
     <g id="line2d_78">
      <g>
       <use xlink:href="#m755b511613" x="51.378125" y="67.904263" style="stroke: #000000; stroke-width: 0.6"/>
      </g>
     </g>
    </g>
    <g id="ytick_49">
     <g id="line2d_79">
      <g>
       <use xlink:href="#m755b511613" x="51.378125" y="61.054937" style="stroke: #000000; stroke-width: 0.6"/>
      </g>
     </g>
    </g>
    <g id="ytick_50">
     <g id="line2d_80">
      <g>
       <use xlink:href="#m755b511613" x="51.378125" y="55.742187" style="stroke: #000000; stroke-width: 0.6"/>
      </g>
     </g>
    </g>
    <g id="ytick_51">
     <g id="line2d_81">
      <g>
       <use xlink:href="#m755b511613" x="51.378125" y="51.401354" style="stroke: #000000; stroke-width: 0.6"/>
      </g>
     </g>
    </g>
    <g id="ytick_52">
     <g id="line2d_82">
      <g>
       <use xlink:href="#m755b511613" x="51.378125" y="47.731232" style="stroke: #000000; stroke-width: 0.6"/>
      </g>
     </g>
    </g>
    <g id="ytick_53">
     <g id="line2d_83">
      <g>
       <use xlink:href="#m755b511613" x="51.378125" y="44.552028" style="stroke: #000000; stroke-width: 0.6"/>
      </g>
     </g>
    </g>
    <g id="ytick_54">
     <g id="line2d_84">
      <g>
       <use xlink:href="#m755b511613" x="51.378125" y="41.747771" style="stroke: #000000; stroke-width: 0.6"/>
      </g>
     </g>
    </g>
    <g id="text_12">
     <!-- oscillation probability -->
     <g transform="translate(14.798438 243.926719)rotate(-90)scale(0.1 -0.1)">
      <defs>
       <path id="DejaVuSans-6f" d="M 1959 3097 
Q 1497 3097 1228 2736 
Q 959 2375 959 1747 
Q 959 1119 1226 758 
Q 1494 397 1959 397 
Q 2419 397 2687 759 
Q 2956 1122 2956 1747 
Q 2956 2369 2687 2733 
Q 2419 3097 1959 3097 
z
M 1959 3584 
Q 2709 3584 3137 3096 
Q 3566 2609 3566 1747 
Q 3566 888 3137 398 
Q 2709 -91 1959 -91 
Q 1206 -91 779 398 
Q 353 888 353 1747 
Q 353 2609 779 3096 
Q 1206 3584 1959 3584 
z
" transform="scale(0.015625)"/>
       <path id="DejaVuSans-73" d="M 2834 3397 
L 2834 2853 
Q 2591 2978 2328 3040 
Q 2066 3103 1784 3103 
Q 1356 3103 1142 2972 
Q 928 2841 928 2578 
Q 928 2378 1081 2264 
Q 1234 2150 1697 2047 
L 1894 2003 
Q 2506 1872 2764 1633 
Q 3022 1394 3022 966 
Q 3022 478 2636 193 
Q 2250 -91 1575 -91 
Q 1294 -91 989 -36 
Q 684 19 347 128 
L 347 722 
Q 666 556 975 473 
Q 1284 391 1588 391 
Q 1994 391 2212 530 
Q 2431 669 2431 922 
Q 2431 1156 2273 1281 
Q 2116 1406 1581 1522 
L 1381 1569 
Q 847 1681 609 1914 
Q 372 2147 372 2553 
Q 372 3047 722 3315 
Q 1072 3584 1716 3584 
Q 2034 3584 2315 3537 
Q 2597 3491 2834 3397 
z
" transform="scale(0.015625)"/>
       <path id="DejaVuSans-63" d="M 3122 3366 
L 3122 2828 
Q 2878 2963 2633 3030 
Q 2388 3097 2138 3097 
Q 1578 3097 1268 2742 
Q 959 2388 959 1747 
Q 959 1106 1268 751 
Q 1578 397 2138 397 
Q 2388 397 2633 464 
Q 2878 531 3122 666 
L 3122 134 
Q 2881 22 2623 -34 
Q 2366 -91 2075 -91 
Q 1284 -91 818 406 
Q 353 903 353 1747 
Q 353 2603 823 3093 
Q 1294 3584 2113 3584 
Q 2378 3584 2631 3529 
Q 2884 3475 3122 3366 
z
" transform="scale(0.015625)"/>
       <path id="DejaVuSans-69" d="M 603 3500 
L 1178 3500 
L 1178 0 
L 603 0 
L 603 3500 
z
M 603 4863 
L 1178 4863 
L 1178 4134 
L 603 4134 
L 603 4863 
z
" transform="scale(0.015625)"/>
       <path id="DejaVuSans-6c" d="M 603 4863 
L 1178 4863 
L 1178 0 
L 603 0 
L 603 4863 
z
" transform="scale(0.015625)"/>
       <path id="DejaVuSans-61" d="M 2194 1759 
Q 1497 1759 1228 1600 
Q 959 1441 959 1056 
Q 959 750 1161 570 
Q 1363 391 1709 391 
Q 2188 391 2477 730 
Q 2766 1069 2766 1631 
L 2766 1759 
L 2194 1759 
z
M 3341 1997 
L 3341 0 
L 2766 0 
L 2766 531 
Q 2569 213 2275 61 
Q 1981 -91 1556 -91 
Q 1019 -91 701 211 
Q 384 513 384 1019 
Q 384 1609 779 1909 
Q 1175 2209 1959 2209 
L 2766 2209 
L 2766 2266 
Q 2766 2663 2505 2880 
Q 2244 3097 1772 3097 
Q 1472 3097 1187 3025 
Q 903 2953 641 2809 
L 641 3341 
Q 956 3463 1253 3523 
Q 1550 3584 1831 3584 
Q 2591 3584 2966 3190 
Q 3341 2797 3341 1997 
z
" transform="scale(0.015625)"/>
       <path id="DejaVuSans-74" d="M 1172 4494 
L 1172 3500 
L 2356 3500 
L 2356 3053 
L 1172 3053 
L 1172 1153 
Q 1172 725 1289 603 
Q 1406 481 1766 481 
L 2356 481 
L 2356 0 
L 1766 0 
Q 1100 0 847 248 
Q 594 497 594 1153 
L 594 3053 
L 172 3053 
L 172 3500 
L 594 3500 
L 594 4494 
L 1172 4494 
z
" transform="scale(0.015625)"/>
       <path id="DejaVuSans-6e" d="M 3513 2113 
L 3513 0 
L 2938 0 
L 2938 2094 
Q 2938 2591 2744 2837 
Q 2550 3084 2163 3084 
Q 1697 3084 1428 2787 
Q 1159 2491 1159 1978 
L 1159 0 
L 581 0 
L 581 3500 
L 1159 3500 
L 1159 2956 
Q 1366 3272 1645 3428 
Q 1925 3584 2291 3584 
Q 2894 3584 3203 3211 
Q 3513 2838 3513 2113 
z
" transform="scale(0.015625)"/>
       <path id="DejaVuSans-20" transform="scale(0.015625)"/>
       <path id="DejaVuSans-70" d="M 1159 525 
L 1159 -1331 
L 581 -1331 
L 581 3500 
L 1159 3500 
L 1159 2969 
Q 1341 3281 1617 3432 
Q 1894 3584 2278 3584 
Q 2916 3584 3314 3078 
Q 3713 2572 3713 1747 
Q 3713 922 3314 415 
Q 2916 -91 2278 -91 
Q 1894 -91 1617 61 
Q 1341 213 1159 525 
z
M 3116 1747 
Q 3116 2381 2855 2742 
Q 2594 3103 2138 3103 
Q 1681 3103 1420 2742 
Q 1159 2381 1159 1747 
Q 1159 1113 1420 752 
Q 1681 391 2138 391 
Q 2594 391 2855 752 
Q 3116 1113 3116 1747 
z
" transform="scale(0.015625)"/>
       <path id="DejaVuSans-72" d="M 2631 2963 
Q 2534 3019 2420 3045 
Q 2306 3072 2169 3072 
Q 1681 3072 1420 2755 
Q 1159 2438 1159 1844 
L 1159 0 
L 581 0 
L 581 3500 
L 1159 3500 
L 1159 2956 
Q 1341 3275 1631 3429 
Q 1922 3584 2338 3584 
Q 2397 3584 2469 3576 
Q 2541 3569 2628 3553 
L 2631 2963 
z
" transform="scale(0.015625)"/>
       <path id="DejaVuSans-62" d="M 3116 1747 
Q 3116 2381 2855 2742 
Q 2594 3103 2138 3103 
Q 1681 3103 1420 2742 
Q 1159 2381 1159 1747 
Q 1159 1113 1420 752 
Q 1681 391 2138 391 
Q 2594 391 2855 752 
Q 3116 1113 3116 1747 
z
M 1159 2969 
Q 1341 3281 1617 3432 
Q 1894 3584 2278 3584 
Q 2916 3584 3314 3078 
Q 3713 2572 3713 1747 
Q 3713 922 3314 415 
Q 2916 -91 2278 -91 
Q 1894 -91 1617 61 
Q 1341 213 1159 525 
L 1159 0 
L 581 0 
L 581 4863 
L 1159 4863 
L 1159 2969 
z
" transform="scale(0.015625)"/>
       <path id="DejaVuSans-79" d="M 2059 -325 
Q 1816 -950 1584 -1140 
Q 1353 -1331 966 -1331 
L 506 -1331 
L 506 -850 
L 844 -850 
Q 1081 -850 1212 -737 
Q 1344 -625 1503 -206 
L 1606 56 
L 191 3500 
L 800 3500 
L 1894 763 
L 2988 3500 
L 3597 3500 
L 2059 -325 
z
" transform="scale(0.015625)"/>
      </defs>
      <use xlink:href="#DejaVuSans-6f"/>
      <use xlink:href="#DejaVuSans-73" x="61.181641"/>
      <use xlink:href="#DejaVuSans-63" x="113.28125"/>
      <use xlink:href="#DejaVuSans-69" x="168.261719"/>
      <use xlink:href="#DejaVuSans-6c" x="196.044922"/>
      <use xlink:href="#DejaVuSans-6c" x="223.828125"/>
      <use xlink:href="#DejaVuSans-61" x="251.611328"/>
      <use xlink:href="#DejaVuSans-74" x="312.890625"/>
      <use xlink:href="#DejaVuSans-69" x="352.099609"/>
      <use xlink:href="#DejaVuSans-6f" x="379.882812"/>
      <use xlink:href="#DejaVuSans-6e" x="441.064453"/>
      <use xlink:href="#DejaVuSans-20" x="504.443359"/>
      <use xlink:href="#DejaVuSans-70" x="536.230469"/>
      <use xlink:href="#DejaVuSans-72" x="599.707031"/>
      <use xlink:href="#DejaVuSans-6f" x="638.570312"/>
      <use xlink:href="#DejaVuSans-62" x="699.751953"/>
      <use xlink:href="#DejaVuSans-61" x="763.228516"/>
      <use xlink:href="#DejaVuSans-62" x="824.507812"/>
      <use xlink:href="#DejaVuSans-69" x="887.984375"/>
      <use xlink:href="#DejaVuSans-6c" x="915.767578"/>
      <use xlink:href="#DejaVuSans-69" x="943.550781"/>
      <use xlink:href="#DejaVuSans-74" x="971.333984"/>
      <use xlink:href="#DejaVuSans-79" x="1010.542969"/>
     </g>
    </g>
   </g>
   <g id="line2d_85">
    <path d="M 66.596307 42.384469 
L 67.206254 50.123407 
L 68.426148 99.094179 
L 69.036095 63.15585 
L 69.646043 45.586806 
L 70.25599 42.370438 
L 70.865937 51.408738 
L 72.085831 100.194405 
L 72.695778 67.04261 
L 73.305726 47.866809 
L 73.915673 41.817276 
L 74.52562 45.982354 
L 75.135567 61.445579 
L 75.745514 91.533933 
L 76.355461 89.311535 
L 76.965409 60.629577 
L 77.575356 46.18436 
L 78.185303 41.85072 
L 78.79525 45.846688 
L 79.405197 58.979171 
L 80.015144 84.110945 
L 80.625092 97.680009 
L 81.235039 70.289302 
L 81.844986 51.998801 
L 82.454933 43.526811 
L 83.06488 42.30778 
L 83.674827 47.726395 
L 84.284775 60.719506 
L 84.894722 83.16594 
L 85.504669 98.049389 
L 86.724563 56.750919 
L 87.33451 46.300539 
L 87.944458 42.140543 
L 88.554405 43.218261 
L 89.164352 49.453144 
L 89.774299 61.583651 
L 90.384246 80.339603 
L 90.994194 94.996891 
L 91.604141 81.092777 
L 92.214088 62.885296 
L 92.824035 50.9787 
L 93.433982 44.420722 
L 94.043929 42.131771 
L 94.653877 43.611967 
L 95.263824 48.808515 
L 95.873771 58.005965 
L 97.093665 85.812091 
L 97.703612 87.503722 
L 98.923507 61.454922 
L 99.533454 52.117119 
L 100.143401 46.334524 
L 100.753348 43.537175 
L 101.363295 43.332384 
L 101.973243 45.49429 
L 102.58319 49.888281 
L 103.193137 56.332235 
L 104.413031 71.888457 
L 105.022978 75.7915 
L 105.632926 73.646071 
L 107.462767 56.081412 
L 108.072714 52.588816 
L 108.682661 50.810823 
L 109.292609 50.651089 
L 109.902556 51.98218 
L 110.512503 54.641611 
L 111.732397 62.701964 
L 112.342344 66.808596 
L 112.952292 69.536766 
L 113.562239 69.919464 
L 114.172186 67.944054 
L 116.002027 57.522271 
L 116.611975 55.07022 
L 117.221922 53.64055 
L 117.831869 53.312024 
L 118.441816 54.123668 
L 119.051763 56.104861 
L 119.66171 59.282582 
L 120.271658 63.664194 
L 121.491552 75.479489 
L 122.101499 81.639874 
L 122.711446 85.731492 
L 123.321393 85.599505 
L 123.931341 81.10806 
L 126.371129 54.952252 
L 126.981076 50.326704 
L 127.591024 46.640464 
L 128.200971 43.822782 
L 128.810918 41.806581 
L 129.420865 40.536572 
L 130.030812 39.971088 
L 130.640759 40.081937 
L 131.250707 40.853886 
L 131.860654 42.284367 
L 132.470601 44.383568 
L 133.080548 47.174876 
L 133.690495 50.695304 
L 134.300442 54.994929 
L 135.520337 66.160279 
L 136.740231 80.706239 
L 137.350178 88.399832 
L 137.960125 94.5901 
L 138.570073 96.939164 
L 139.18002 94.346978 
L 139.789967 88.36306 
L 141.619808 68.182714 
L 142.839703 58.27472 
L 144.059597 51.24703 
L 144.669544 48.630865 
L 145.279491 46.532455 
L 145.889439 44.904405 
L 146.499386 43.708492 
L 147.109333 42.914337 
L 147.71928 42.498264 
L 148.329227 42.442415 
L 148.939174 42.734103 
L 149.549122 43.365401 
L 150.159069 44.332936 
L 150.769016 45.637896 
L 151.378963 47.286258 
L 152.598857 51.664151 
L 153.818752 57.636519 
L 155.038646 65.522481 
L 156.25854 75.895392 
L 157.478435 89.804942 
L 158.088382 98.640411 
L 159.308276 121.524006 
L 159.918223 134.745793 
L 160.528171 143.20797 
L 161.138118 139.034346 
L 162.967959 104.014077 
L 164.187854 87.729787 
L 165.407748 75.997492 
L 166.627642 67.181583 
L 167.847537 60.375696 
L 169.067431 55.036736 
L 170.287325 50.825116 
L 171.50722 47.513898 
L 172.727114 44.944218 
L 173.947008 43.000729 
L 175.166903 41.597249 
L 176.386797 40.667945 
L 177.606691 40.161737 
L 178.826586 40.038571 
L 180.04648 40.266921 
L 181.266374 40.822067 
L 182.486269 41.684871 
L 183.706163 42.840989 
L 184.926057 44.280289 
L 186.145952 45.996534 
L 187.975793 49.08574 
L 189.805635 52.80092 
L 191.635476 57.17055 
L 193.465318 62.247993 
L 195.295159 68.118577 
L 197.125001 74.911229 
L 198.954842 82.816842 
L 200.784684 92.115191 
L 202.004578 99.278839 
L 203.224472 107.380139 
L 204.444367 116.549097 
L 208.10405 145.776192 
L 208.713997 147.816921 
L 209.323944 147.794106 
L 209.933891 145.792 
L 210.543838 142.3186 
L 212.37368 128.671064 
L 214.203521 115.873411 
L 215.423416 108.657687 
L 216.64331 102.400696 
L 217.863204 96.950359 
L 219.693046 89.991603 
L 221.522887 84.178968 
L 223.352729 79.253029 
L 225.18257 75.028065 
L 227.012412 71.368342 
L 228.842253 68.172352 
L 230.672095 65.362427 
L 232.501936 62.877916 
L 234.941725 59.989463 
L 237.381514 57.505449 
L 239.821302 55.356922 
L 242.261091 53.489731 
L 244.70088 51.860633 
L 247.750615 50.106339 
L 250.800351 48.614794 
L 254.460034 47.110788 
L 258.119717 45.862787 
L 262.389347 44.668601 
L 266.658978 43.701617 
L 271.538555 42.817285 
L 277.028079 42.043735 
L 283.737498 41.338881 
L 291.666811 40.755635 
L 300.816019 40.316584 
L 312.405015 39.997401 
L 327.653694 39.830017 
L 344.122268 39.853642 
L 360.590841 40.053823 
L 370.959943 40.289218 
L 370.959943 40.289218 
" clip-path="url(#pebe1e4c1cc)" style="fill: none; stroke: #ff0000; stroke-width: 0.8; stroke-linecap: square"/>
   </g>
   <g id="line2d_86">
    <path d="M 66.596307 102.049386 
L 67.206254 64.376708 
L 67.816201 45.651818 
L 68.426148 42.63356 
L 69.036095 53.061811 
L 69.646043 81.438261 
L 70.25599 96.605392 
L 70.865937 61.882582 
L 71.475884 45.637213 
L 72.085831 42.530456 
L 72.695778 50.646215 
L 73.305726 72.864322 
L 73.915673 102.659519 
L 74.52562 73.777765 
L 75.135567 51.823596 
L 75.745514 43.274387 
L 76.355461 44.444314 
L 76.965409 55.324303 
L 78.185303 103.15868 
L 78.79525 74.108904 
L 79.405197 53.264882 
L 80.015144 43.968222 
L 80.625092 42.882608 
L 81.235039 49.341526 
L 81.844986 64.790291 
L 82.454933 91.530457 
L 83.06488 95.779511 
L 83.674827 68.682869 
L 84.284775 51.889221 
L 84.894722 43.842132 
L 85.504669 42.270135 
L 86.114616 46.526686 
L 86.724563 57.15716 
L 87.944458 96.639569 
L 88.554405 85.746052 
L 89.164352 64.845642 
L 89.774299 51.592624 
L 90.384246 44.689276 
L 90.994194 42.745672 
L 91.604141 45.221208 
L 92.214088 52.217318 
L 92.824035 64.356025 
L 93.433982 81.64083 
L 94.043929 93.853707 
L 94.653877 82.550879 
L 95.263824 66.038618 
L 95.873771 54.396098 
L 96.483718 47.435307 
L 97.093665 44.269973 
L 97.703612 44.378686 
L 98.31356 47.56319 
L 98.923507 53.855996 
L 99.533454 63.3441 
L 100.753348 85.452825 
L 101.363295 84.460447 
L 102.58319 63.811475 
L 103.193137 55.914074 
L 103.803084 50.800244 
L 104.413031 48.168931 
L 105.022978 47.746444 
L 105.632926 49.344363 
L 106.242873 52.824138 
L 106.85282 58.007108 
L 108.072714 71.126351 
L 108.682661 75.815538 
L 109.292609 76.255303 
L 109.902556 72.572396 
L 111.12245 61.784094 
L 111.732397 57.572147 
L 112.342344 54.726856 
L 112.952292 53.271653 
L 113.562239 53.144058 
L 114.172186 54.246101 
L 114.782133 56.437969 
L 116.002027 63.0061 
L 116.611975 66.310284 
L 117.221922 68.480752 
L 117.831869 68.683076 
L 118.441816 66.733142 
L 119.051763 63.231485 
L 120.881605 51.428405 
L 121.491552 48.580121 
L 122.101499 46.547763 
L 122.711446 45.367688 
L 123.321393 45.056459 
L 123.931341 45.631388 
L 124.541288 47.123327 
L 125.151235 49.58727 
L 125.761182 53.114885 
L 126.371129 57.853658 
L 126.981076 64.040659 
L 127.591024 72.068657 
L 128.200971 82.631158 
L 128.810918 97.093555 
L 129.420865 118.691317 
L 130.030812 158.014835 
L 130.640759 179.368107 
L 131.250707 129.425937 
L 131.860654 104.654205 
L 132.470601 89.025362 
L 133.080548 77.970509 
L 133.690495 69.710109 
L 134.300442 63.372922 
L 134.91039 58.469568 
L 135.520337 54.699493 
L 136.130284 51.866764 
L 136.740231 49.838655 
L 137.350178 48.523506 
L 137.960125 47.858148 
L 138.570073 47.800543 
L 139.18002 48.325467 
L 139.789967 49.422184 
L 140.399914 51.093529 
L 141.009861 53.356185 
L 141.619808 56.242113 
L 142.229756 59.801247 
L 142.839703 64.10564 
L 143.44965 69.255097 
L 144.059597 75.383304 
L 145.279491 91.261417 
L 147.109333 120.710084 
L 147.71928 122.026215 
L 148.329227 114.88978 
L 149.549122 94.429117 
L 150.769016 78.172836 
L 151.98891 66.42084 
L 153.208805 57.823111 
L 154.428699 51.481061 
L 155.648593 46.841946 
L 156.868488 43.554398 
L 157.478435 42.341645 
L 158.088382 41.38627 
L 158.698329 40.670606 
L 159.308276 40.180019 
L 159.918223 39.902428 
L 160.528171 39.82794 
L 161.138118 39.94857 
L 161.748065 40.258042 
L 162.358012 40.751638 
L 162.967959 41.426102 
L 164.187854 43.311642 
L 165.407748 45.916835 
L 166.627642 49.266981 
L 167.847537 53.419601 
L 169.067431 58.467778 
L 170.287325 64.561393 
L 171.50722 71.938777 
L 172.727114 80.991166 
L 173.947008 92.404058 
L 175.166903 107.516044 
L 175.77685 117.292303 
L 176.386797 129.455311 
L 176.996744 145.419478 
L 177.606691 168.000947 
L 178.216638 198.252371 
L 178.826586 190.097891 
L 179.436533 161.571217 
L 180.04648 141.953214 
L 180.656427 127.930799 
L 181.266374 117.187576 
L 182.486269 101.379712 
L 183.706163 89.997157 
L 184.926057 81.254998 
L 186.145952 74.274169 
L 187.365846 68.557077 
L 188.58574 63.79421 
L 189.805635 59.779531 
L 191.025529 56.368606 
L 192.245423 53.456029 
L 193.465318 50.962346 
L 194.685212 48.826006 
L 195.905106 46.998305 
L 197.125001 45.43992 
L 198.954842 43.538307 
L 200.784684 42.084226 
L 202.614525 41.009876 
L 204.444367 40.261349 
L 206.274208 39.794956 
L 208.10405 39.574747 
L 209.933891 39.570734 
L 211.763733 39.757634 
L 214.203521 40.267044 
L 216.64331 41.035018 
L 219.083099 42.02612 
L 222.132834 43.534071 
L 225.18257 45.296721 
L 228.842253 47.693505 
L 232.501936 50.346109 
L 236.771566 53.705642 
L 241.651144 57.826982 
L 247.140668 62.746229 
L 253.850087 69.068035 
L 261.7794 76.859338 
L 271.538555 86.776275 
L 284.347445 100.141234 
L 301.425966 118.312832 
L 324.603958 143.305437 
L 354.49137 175.86839 
L 370.959943 193.995569 
L 370.959943 193.995569 
" clip-path="url(#pebe1e4c1cc)" style="fill: none; stroke: #008000; stroke-width: 0.8; stroke-linecap: square"/>
   </g>
   <g id="line2d_87">
    <path d="M 66.596307 109.527902 
L 67.206254 133.6339 
L 67.816201 130.865314 
L 68.426148 109.678838 
L 69.036095 101.174592 
L 69.646043 104.659638 
L 70.25599 120.21515 
L 70.865937 141.181365 
L 71.475884 128.167539 
L 72.085831 109.729555 
L 72.695778 102.697984 
L 73.305726 106.081166 
L 73.915673 120.527751 
L 74.52562 144.155396 
L 75.135567 136.220474 
L 75.745514 113.250904 
L 76.355461 101.146466 
L 76.965409 98.240718 
L 77.575356 103.621302 
L 78.185303 118.648584 
L 78.79525 146.342956 
L 79.405197 152.218798 
L 80.015144 124.179817 
L 80.625092 107.885202 
L 81.235039 101.122529 
L 81.844986 101.583654 
L 82.454933 108.933383 
L 83.06488 124.501647 
L 83.674827 150.188037 
L 84.284775 159.322 
L 84.894722 135.267405 
L 85.504669 119.116564 
L 86.114616 111.658808 
L 86.724563 110.781329 
L 87.33451 115.82603 
L 87.944458 127.120604 
L 88.554405 144.424673 
L 89.164352 155.214171 
L 89.774299 141.673299 
L 90.384246 125.587344 
L 90.994194 115.435702 
L 91.604141 110.69922 
L 92.214088 110.677506 
L 92.824035 115.29538 
L 93.433982 125.198119 
L 94.043929 141.786756 
L 94.653877 162.843759 
L 95.263824 159.291112 
L 95.873771 137.379321 
L 96.483718 121.221068 
L 97.093665 111.042689 
L 97.703612 105.292976 
L 98.31356 103.115588 
L 98.923507 104.177785 
L 99.533454 108.565475 
L 100.143401 116.86948 
L 100.753348 130.60658 
L 101.363295 153.539378 
L 101.973243 189.242499 
L 102.58319 168.984497 
L 103.193137 138.035238 
L 103.803084 119.174966 
L 104.413031 106.658626 
L 105.022978 97.936351 
L 105.632926 91.775325 
L 106.242873 87.478515 
L 106.85282 84.596405 
L 107.462767 82.803381 
L 108.072714 81.837983 
L 108.682661 81.472765 
L 109.292609 81.501284 
L 111.732397 82.3336 
L 112.952292 82.118935 
L 114.782133 81.594615 
L 115.39208 81.610493 
L 116.002027 81.792747 
L 116.611975 82.162467 
L 117.221922 82.729835 
L 117.831869 83.49822 
L 119.051763 85.642485 
L 120.271658 88.636694 
L 121.491552 92.632627 
L 122.711446 97.940389 
L 123.931341 105.036214 
L 125.151235 114.50745 
L 126.371129 126.629597 
L 127.591024 138.882424 
L 128.200971 141.925051 
L 128.810918 140.747263 
L 129.420865 135.719662 
L 131.860654 107.926378 
L 133.080548 97.439487 
L 134.300442 89.513194 
L 135.520337 83.673555 
L 136.740231 79.550117 
L 137.350178 78.045891 
L 137.960125 76.878167 
L 138.570073 76.025859 
L 139.18002 75.471351 
L 139.789967 75.200006 
L 140.399914 75.199793 
L 141.009861 75.461001 
L 141.619808 75.976029 
L 142.229756 76.739248 
L 142.839703 77.746913 
L 144.059597 80.489937 
L 145.279491 84.213303 
L 146.499386 88.959892 
L 147.71928 94.816404 
L 148.939174 101.930481 
L 150.159069 110.541721 
L 151.378963 121.037864 
L 152.598857 134.053993 
L 153.818752 150.596867 
L 155.038646 171.555479 
L 155.648593 182.529519 
L 156.25854 190.080672 
L 156.868488 189.819432 
L 157.478435 182.786894 
L 158.698329 164.969337 
L 159.918223 150.977641 
L 161.138118 140.839107 
L 162.358012 133.399159 
L 163.577906 127.867939 
L 164.797801 123.746495 
L 166.017695 120.709543 
L 167.237589 118.534021 
L 168.457484 117.065627 
L 169.677378 116.187095 
L 170.897272 115.810735 
L 172.117167 115.868388 
L 173.337061 116.305884 
L 174.556955 117.079304 
L 175.77685 118.152437 
L 176.996744 119.49494 
L 178.826586 121.958274 
L 180.656427 124.897336 
L 182.486269 128.251397 
L 184.926057 133.278993 
L 187.365846 138.839268 
L 190.415582 146.372924 
L 195.295159 159.211397 
L 200.174736 171.901072 
L 202.614525 177.68984 
L 205.054314 182.833 
L 206.884155 186.174863 
L 208.713997 189.041019 
L 210.543838 191.438537 
L 212.37368 193.406353 
L 214.203521 195.00643 
L 216.033363 196.3124 
L 218.473151 197.7247 
L 221.522887 199.178405 
L 231.282042 203.590025 
L 234.941725 205.558446 
L 238.601408 207.763823 
L 242.871038 210.625906 
L 247.140668 213.769943 
L 252.020246 217.660829 
L 257.50977 222.352752 
L 263.609242 227.877716 
L 270.928608 234.837984 
L 279.467868 243.288173 
L 289.83697 253.874231 
L 303.255808 267.90805 
L 320.334328 286.100288 
L 338.632743 305.91702 
L 356.931158 326.096494 
L 370.959943 341.64 
L 370.959943 341.64 
" clip-path="url(#pebe1e4c1cc)" style="fill: none; stroke: #0000ff; stroke-width: 0.8; stroke-linecap: square"/>
   </g>
   <g id="line2d_88">
    <path d="M 66.596307 39.24 
L 284.957393 39.354312 
L 329.483536 39.577378 
L 355.101317 39.888756 
L 370.959943 40.251762 
L 370.959943 40.251762 
" clip-path="url(#pebe1e4c1cc)" style="fill: none; stroke: #000000; stroke-width: 2; stroke-linecap: square"/>
   </g>
   <g id="patch_3">
    <path d="M 51.378125 356.76 
L 51.378125 24.12 
" style="fill: none; stroke: #000000; stroke-width: 0.8; stroke-linejoin: miter; stroke-linecap: square"/>
   </g>
   <g id="patch_4">
    <path d="M 386.178125 356.76 
L 386.178125 24.12 
" style="fill: none; stroke: #000000; stroke-width: 0.8; stroke-linejoin: miter; stroke-linecap: square"/>
   </g>
   <g id="patch_5">
    <path d="M 51.378125 356.76 
L 386.178125 356.76 
" style="fill: none; stroke: #000000; stroke-width: 0.8; stroke-linejoin: miter; stroke-linecap: square"/>
   </g>
   <g id="patch_6">
    <path d="M 51.378125 24.12 
L 386.178125 24.12 
" style="fill: none; stroke: #000000; stroke-width: 0.8; stroke-linejoin: miter; stroke-linecap: square"/>
   </g>
   <g id="text_13">
    <!-- atmospheric $\nu$-osc., $\Theta=\pi$, $dn/dE \propto E^{-2}$ -->
    <g transform="translate(104.178125 18.12)scale(0.12 -0.12)">
     <defs>
      <path id="DejaVuSans-6d" d="M 3328 2828 
Q 3544 3216 3844 3400 
Q 4144 3584 4550 3584 
Q 5097 3584 5394 3201 
Q 5691 2819 5691 2113 
L 5691 0 
L 5113 0 
L 5113 2094 
Q 5113 2597 4934 2840 
Q 4756 3084 4391 3084 
Q 3944 3084 3684 2787 
Q 3425 2491 3425 1978 
L 3425 0 
L 2847 0 
L 2847 2094 
Q 2847 2600 2669 2842 
Q 2491 3084 2119 3084 
Q 1678 3084 1418 2786 
Q 1159 2488 1159 1978 
L 1159 0 
L 581 0 
L 581 3500 
L 1159 3500 
L 1159 2956 
Q 1356 3278 1631 3431 
Q 1906 3584 2284 3584 
Q 2666 3584 2933 3390 
Q 3200 3197 3328 2828 
z
" transform="scale(0.015625)"/>
      <path id="DejaVuSans-68" d="M 3513 2113 
L 3513 0 
L 2938 0 
L 2938 2094 
Q 2938 2591 2744 2837 
Q 2550 3084 2163 3084 
Q 1697 3084 1428 2787 
Q 1159 2491 1159 1978 
L 1159 0 
L 581 0 
L 581 4863 
L 1159 4863 
L 1159 2956 
Q 1366 3272 1645 3428 
Q 1925 3584 2291 3584 
Q 2894 3584 3203 3211 
Q 3513 2838 3513 2113 
z
" transform="scale(0.015625)"/>
      <path id="DejaVuSans-65" d="M 3597 1894 
L 3597 1613 
L 953 1613 
Q 991 1019 1311 708 
Q 1631 397 2203 397 
Q 2534 397 2845 478 
Q 3156 559 3463 722 
L 3463 178 
Q 3153 47 2828 -22 
Q 2503 -91 2169 -91 
Q 1331 -91 842 396 
Q 353 884 353 1716 
Q 353 2575 817 3079 
Q 1281 3584 2069 3584 
Q 2775 3584 3186 3129 
Q 3597 2675 3597 1894 
z
M 3022 2063 
Q 3016 2534 2758 2815 
Q 2500 3097 2075 3097 
Q 1594 3097 1305 2825 
Q 1016 2553 972 2059 
L 3022 2063 
z
" transform="scale(0.015625)"/>
      <path id="DejaVuSans-2d" d="M 313 2009 
L 1997 2009 
L 1997 1497 
L 313 1497 
L 313 2009 
z
" transform="scale(0.015625)"/>
      <path id="DejaVuSans-2e" d="M 684 794 
L 1344 794 
L 1344 0 
L 684 0 
L 684 794 
z
" transform="scale(0.015625)"/>
      <path id="DejaVuSans-2c" d="M 750 794 
L 1409 794 
L 1409 256 
L 897 -744 
L 494 -744 
L 750 256 
L 750 794 
z
" transform="scale(0.015625)"/>
      <path id="DejaVuSans-398" d="M 1416 2750 
L 3622 2750 
L 3622 2219 
L 1416 2219 
L 1416 2750 
z
M 2522 4238 
Q 1834 4238 1431 3725 
Q 1025 3213 1025 2328 
Q 1025 1447 1429 934 
Q 1834 422 2522 422 
Q 3209 422 3613 934 
Q 4013 1447 4013 2328 
Q 4013 3213 3613 3725 
Q 3209 4238 2522 4238 
z
M 2522 4750 
Q 3503 4750 4090 4092 
Q 4678 3434 4678 2328 
Q 4678 1225 4091 569 
Q 3503 -91 2522 -91 
Q 1538 -91 950 566 
Q 359 1222 359 2328 
Q 359 3434 950 4094 
Q 1538 4750 2522 4750 
z
" transform="scale(0.015625)"/>
      <path id="DejaVuSans-3d" d="M 678 2906 
L 4684 2906 
L 4684 2381 
L 678 2381 
L 678 2906 
z
M 678 1631 
L 4684 1631 
L 4684 1100 
L 678 1100 
L 678 1631 
z
" transform="scale(0.015625)"/>
      <path id="DejaVuSans-Oblique-3c0" d="M 584 3500 
L 3938 3500 
L 3825 2925 
L 3384 2925 
L 2966 775 
Q 2922 550 2981 450 
Q 3038 353 3209 353 
Q 3256 353 3325 363 
Q 3397 369 3419 372 
L 3338 -44 
Q 3222 -84 3103 -103 
Q 2981 -122 2866 -122 
Q 2491 -122 2388 81 
Q 2284 288 2391 838 
L 2797 2925 
L 1506 2925 
L 938 0 
L 350 0 
L 919 2925 
L 472 2925 
L 584 3500 
z
" transform="scale(0.015625)"/>
      <path id="DejaVuSans-Oblique-64" d="M 2675 525 
Q 2444 222 2128 65 
Q 1813 -91 1428 -91 
Q 903 -91 598 267 
Q 294 625 294 1247 
Q 294 1766 478 2236 
Q 663 2706 1013 3078 
Q 1244 3325 1534 3454 
Q 1825 3584 2144 3584 
Q 2481 3584 2739 3421 
Q 2997 3259 3138 2956 
L 3513 4863 
L 4091 4863 
L 3144 0 
L 2566 0 
L 2675 525 
z
M 891 1350 
Q 891 897 1095 644 
Q 1300 391 1663 391 
Q 1931 391 2161 520 
Q 2391 650 2566 903 
Q 2750 1166 2856 1509 
Q 2963 1853 2963 2188 
Q 2963 2622 2758 2865 
Q 2553 3109 2194 3109 
Q 1922 3109 1687 2981 
Q 1453 2853 1288 2613 
Q 1106 2353 998 2009 
Q 891 1666 891 1350 
z
" transform="scale(0.015625)"/>
      <path id="DejaVuSans-Oblique-6e" d="M 3566 2113 
L 3156 0 
L 2578 0 
L 2988 2091 
Q 3016 2238 3031 2350 
Q 3047 2463 3047 2528 
Q 3047 2791 2881 2937 
Q 2716 3084 2419 3084 
Q 1956 3084 1622 2776 
Q 1288 2469 1184 1941 
L 800 0 
L 225 0 
L 903 3500 
L 1478 3500 
L 1363 2950 
Q 1603 3253 1940 3418 
Q 2278 3584 2650 3584 
Q 3113 3584 3367 3334 
Q 3622 3084 3622 2631 
Q 3622 2519 3608 2391 
Q 3594 2263 3566 2113 
z
" transform="scale(0.015625)"/>
      <path id="DejaVuSans-2f" d="M 1625 4666 
L 2156 4666 
L 531 -594 
L 0 -594 
L 1625 4666 
z
" transform="scale(0.015625)"/>
      <path id="DejaVuSans-221d" d="M 1647 1134 
Q 2163 1134 2472 1884 
Q 2075 2703 1647 2703 
Q 1334 2703 1175 2478 
Q 1006 2238 1006 1919 
Q 1006 1569 1175 1353 
Q 1350 1134 1647 1134 
z
M 3884 1128 
L 3884 716 
L 3644 716 
Q 3416 716 3247 809 
Q 3078 894 2916 1091 
Q 2819 1203 2666 1466 
Q 2456 1091 2272 925 
Q 2044 725 1681 725 
Q 1259 725 981 1041 
Q 688 1372 688 1919 
Q 688 2444 981 2800 
Q 1241 3116 1688 3116 
Q 1916 3116 2084 3022 
Q 2281 2919 2416 2741 
Q 2541 2581 2666 2366 
Q 2875 2741 3059 2906 
Q 3288 3106 3650 3106 
L 3884 3106 
L 3884 2697 
L 3684 2697 
Q 3222 2697 2859 1947 
Q 3256 1128 3684 1128 
L 3884 1128 
z
" transform="scale(0.015625)"/>
     </defs>
     <use xlink:href="#DejaVuSans-61" transform="translate(0 0.765625)"/>
     <use xlink:href="#DejaVuSans-74" transform="translate(61.279297 0.765625)"/>
     <use xlink:href="#DejaVuSans-6d" transform="translate(100.488281 0.765625)"/>
     <use xlink:href="#DejaVuSans-6f" transform="translate(197.900391 0.765625)"/>
     <use xlink:href="#DejaVuSans-73" transform="translate(259.082031 0.765625)"/>
     <use xlink:href="#DejaVuSans-70" transform="translate(311.181641 0.765625)"/>
     <use xlink:href="#DejaVuSans-68" transform="translate(374.658203 0.765625)"/>
     <use xlink:href="#DejaVuSans-65" transform="translate(438.037109 0.765625)"/>
     <use xlink:href="#DejaVuSans-72" transform="translate(499.560547 0.765625)"/>
     <use xlink:href="#DejaVuSans-69" transform="translate(540.673828 0.765625)"/>
     <use xlink:href="#DejaVuSans-63" transform="translate(568.457031 0.765625)"/>
     <use xlink:href="#DejaVuSans-20" transform="translate(623.4375 0.765625)"/>
     <use xlink:href="#DejaVuSans-Oblique-3bd" transform="translate(655.224609 0.765625)"/>
     <use xlink:href="#DejaVuSans-2d" transform="translate(711.083984 0.765625)"/>
     <use xlink:href="#DejaVuSans-6f" transform="translate(747.167969 0.765625)"/>
     <use xlink:href="#DejaVuSans-73" transform="translate(808.349609 0.765625)"/>
     <use xlink:href="#DejaVuSans-63" transform="translate(860.449219 0.765625)"/>
     <use xlink:href="#DejaVuSans-2e" transform="translate(915.429688 0.765625)"/>
     <use xlink:href="#DejaVuSans-2c" transform="translate(947.216797 0.765625)"/>
     <use xlink:href="#DejaVuSans-20" transform="translate(979.003906 0.765625)"/>
     <use xlink:href="#DejaVuSans-398" transform="translate(1010.791016 0.765625)"/>
     <use xlink:href="#DejaVuSans-3d" transform="translate(1108.984375 0.765625)"/>
     <use xlink:href="#DejaVuSans-Oblique-3c0" transform="translate(1212.255859 0.765625)"/>
     <use xlink:href="#DejaVuSans-2c" transform="translate(1272.460938 0.765625)"/>
     <use xlink:href="#DejaVuSans-20" transform="translate(1304.248047 0.765625)"/>
     <use xlink:href="#DejaVuSans-Oblique-64" transform="translate(1336.035156 0.765625)"/>
     <use xlink:href="#DejaVuSans-Oblique-6e" transform="translate(1399.511719 0.765625)"/>
     <use xlink:href="#DejaVuSans-2f" transform="translate(1462.890625 0.765625)"/>
     <use xlink:href="#DejaVuSans-Oblique-64" transform="translate(1496.582031 0.765625)"/>
     <use xlink:href="#DejaVuSans-Oblique-45" transform="translate(1560.058594 0.765625)"/>
     <use xlink:href="#DejaVuSans-221d" transform="translate(1642.724609 0.765625)"/>
     <use xlink:href="#DejaVuSans-Oblique-45" transform="translate(1733.642578 0.765625)"/>
     <use xlink:href="#DejaVuSans-2212" transform="translate(1803.842943 39.046875)scale(0.7)"/>
     <use xlink:href="#DejaVuSans-32" transform="translate(1862.495286 39.046875)scale(0.7)"/>
    </g>
   </g>
   <g id="legend_1">
    <g id="patch_7">
     <path d="M 58.378125 351.76 
L 178.678125 351.76 
Q 180.678125 351.76 180.678125 349.76 
L 180.678125 303.66 
Q 180.678125 301.66 178.678125 301.66 
L 58.378125 301.66 
Q 56.378125 301.66 56.378125 303.66 
L 56.378125 349.76 
Q 56.378125 351.76 58.378125 351.76 
z
" style="fill: #ffffff; opacity: 0.8; stroke: #cccccc; stroke-linejoin: miter"/>
    </g>
    <g id="line2d_89">
     <path d="M 60.378125 309.76 
L 70.378125 309.76 
L 80.378125 309.76 
" style="fill: none; stroke: #ff0000; stroke-width: 0.8; stroke-linecap: square"/>
    </g>
    <g id="text_14">
     <!-- $P [\nu_\mu + \bar{\nu}_\mu \to \nu_\mu +\bar{\nu}_\mu]$ -->
     <g transform="translate(88.378125 313.26)scale(0.1 -0.1)">
      <defs>
       <path id="DejaVuSans-Oblique-50" d="M 1081 4666 
L 2541 4666 
Q 3178 4666 3512 4369 
Q 3847 4072 3847 3500 
Q 3847 2731 3353 2303 
Q 2859 1875 1966 1875 
L 1172 1875 
L 806 0 
L 172 0 
L 1081 4666 
z
M 1613 4147 
L 1275 2394 
L 2069 2394 
Q 2606 2394 2893 2669 
Q 3181 2944 3181 3456 
Q 3181 3784 2986 3965 
Q 2791 4147 2438 4147 
L 1613 4147 
z
" transform="scale(0.015625)"/>
       <path id="DejaVuSans-Oblique-3bc" d="M -84 -1331 
L 856 3500 
L 1434 3500 
L 1009 1322 
Q 997 1256 987 1175 
Q 978 1094 978 1013 
Q 978 722 1161 565 
Q 1344 409 1684 409 
Q 2147 409 2431 671 
Q 2716 934 2816 1459 
L 3213 3500 
L 3788 3500 
L 3266 809 
Q 3253 750 3248 706 
Q 3244 663 3244 628 
Q 3244 531 3283 486 
Q 3322 441 3406 441 
Q 3438 441 3492 456 
Q 3547 472 3647 513 
L 3559 50 
Q 3422 -19 3297 -55 
Q 3172 -91 3053 -91 
Q 2847 -91 2730 40 
Q 2613 172 2613 403 
Q 2438 153 2195 31 
Q 1953 -91 1625 -91 
Q 1334 -91 1117 43 
Q 900 178 831 397 
L 494 -1331 
L -84 -1331 
z
" transform="scale(0.015625)"/>
       <path id="DejaVuSans-2b" d="M 2944 4013 
L 2944 2272 
L 4684 2272 
L 4684 1741 
L 2944 1741 
L 2944 0 
L 2419 0 
L 2419 1741 
L 678 1741 
L 678 2272 
L 2419 2272 
L 2419 4013 
L 2944 4013 
z
" transform="scale(0.015625)"/>
       <path id="DejaVuSans-304" d="M -2522 4769 
L -653 4769 
L -653 4306 
L -2522 4306 
L -2522 4769 
z
" transform="scale(0.015625)"/>
       <path id="DejaVuSans-2192" d="M 5050 2147 
L 5050 1866 
L 3822 638 
L 3447 1013 
L 4175 1741 
L 366 1741 
L 366 2272 
L 4175 2272 
L 3447 3000 
L 3822 3375 
L 5050 2147 
z
" transform="scale(0.015625)"/>
      </defs>
      <use xlink:href="#DejaVuSans-Oblique-50" transform="translate(0 0.015625)"/>
      <use xlink:href="#DejaVuSans-5b" transform="translate(60.302734 0.015625)"/>
      <use xlink:href="#DejaVuSans-Oblique-3bd" transform="translate(99.316406 0.015625)"/>
      <use xlink:href="#DejaVuSans-Oblique-3bc" transform="translate(155.175781 -16.390625)scale(0.7)"/>
      <use xlink:href="#DejaVuSans-2b" transform="translate(221.928711 0.015625)"/>
      <use xlink:href="#DejaVuSans-304" transform="translate(384.571289 -0.078125)"/>
      <use xlink:href="#DejaVuSans-Oblique-3bd" transform="translate(325.200195 0.015625)"/>
      <use xlink:href="#DejaVuSans-Oblique-3bc" transform="translate(382.016602 -16.390625)scale(0.7)"/>
      <use xlink:href="#DejaVuSans-2192" transform="translate(429.287109 0.015625)"/>
      <use xlink:href="#DejaVuSans-Oblique-3bd" transform="translate(513.076172 0.015625)"/>
      <use xlink:href="#DejaVuSans-Oblique-3bc" transform="translate(568.935547 -16.390625)scale(0.7)"/>
      <use xlink:href="#DejaVuSans-2b" transform="translate(635.688477 0.015625)"/>
      <use xlink:href="#DejaVuSans-304" transform="translate(798.331055 -0.078125)"/>
      <use xlink:href="#DejaVuSans-Oblique-3bd" transform="translate(738.959961 0.015625)"/>
      <use xlink:href="#DejaVuSans-Oblique-3bc" transform="translate(795.776367 -16.390625)scale(0.7)"/>
      <use xlink:href="#DejaVuSans-5d" transform="translate(843.046875 0.015625)"/>
     </g>
    </g>
    <g id="line2d_90">
     <path d="M 60.378125 325.46 
L 70.378125 325.46 
L 80.378125 325.46 
" style="fill: none; stroke: #008000; stroke-width: 0.8; stroke-linecap: square"/>
    </g>
    <g id="text_15">
     <!-- $P [\nu_\mu + \bar{\nu}_\mu \to \nu_\tau +\bar{\nu}_\tau]$ -->
     <g transform="translate(88.378125 328.96)scale(0.1 -0.1)">
      <defs>
       <path id="DejaVuSans-Oblique-3c4" d="M 2103 638 
Q 2188 488 2525 488 
L 2800 488 
L 2706 0 
L 2363 0 
Q 1800 0 1600 300 
Q 1403 606 1534 1269 
L 1856 2925 
L 541 2925 
L 653 3500 
L 3881 3500 
L 3769 2925 
L 2444 2925 
L 2113 1234 
Q 2025 781 2103 638 
z
" transform="scale(0.015625)"/>
      </defs>
      <use xlink:href="#DejaVuSans-Oblique-50" transform="translate(0 0.015625)"/>
      <use xlink:href="#DejaVuSans-5b" transform="translate(60.302734 0.015625)"/>
      <use xlink:href="#DejaVuSans-Oblique-3bd" transform="translate(99.316406 0.015625)"/>
      <use xlink:href="#DejaVuSans-Oblique-3bc" transform="translate(155.175781 -16.390625)scale(0.7)"/>
      <use xlink:href="#DejaVuSans-2b" transform="translate(221.928711 0.015625)"/>
      <use xlink:href="#DejaVuSans-304" transform="translate(384.571289 -0.078125)"/>
      <use xlink:href="#DejaVuSans-Oblique-3bd" transform="translate(325.200195 0.015625)"/>
      <use xlink:href="#DejaVuSans-Oblique-3bc" transform="translate(382.016602 -16.390625)scale(0.7)"/>
      <use xlink:href="#DejaVuSans-2192" transform="translate(429.287109 0.015625)"/>
      <use xlink:href="#DejaVuSans-Oblique-3bd" transform="translate(513.076172 0.015625)"/>
      <use xlink:href="#DejaVuSans-Oblique-3c4" transform="translate(568.935547 -16.390625)scale(0.7)"/>
      <use xlink:href="#DejaVuSans-2b" transform="translate(633.295898 0.015625)"/>
      <use xlink:href="#DejaVuSans-304" transform="translate(795.938477 -0.078125)"/>
      <use xlink:href="#DejaVuSans-Oblique-3bd" transform="translate(736.567383 0.015625)"/>
      <use xlink:href="#DejaVuSans-Oblique-3c4" transform="translate(793.383789 -16.390625)scale(0.7)"/>
      <use xlink:href="#DejaVuSans-5d" transform="translate(838.261719 0.015625)"/>
     </g>
    </g>
    <g id="line2d_91">
     <path d="M 60.378125 341.16 
L 70.378125 341.16 
L 80.378125 341.16 
" style="fill: none; stroke: #0000ff; stroke-width: 0.8; stroke-linecap: square"/>
    </g>
    <g id="text_16">
     <!-- $P [\nu_\mu + \bar{\nu}_\mu \to \nu_e + \bar{\nu}_e]$ -->
     <g transform="translate(88.378125 344.66)scale(0.1 -0.1)">
      <use xlink:href="#DejaVuSans-Oblique-50" transform="translate(0 0.015625)"/>
      <use xlink:href="#DejaVuSans-5b" transform="translate(60.302734 0.015625)"/>
      <use xlink:href="#DejaVuSans-Oblique-3bd" transform="translate(99.316406 0.015625)"/>
      <use xlink:href="#DejaVuSans-Oblique-3bc" transform="translate(155.175781 -16.390625)scale(0.7)"/>
      <use xlink:href="#DejaVuSans-2b" transform="translate(221.928711 0.015625)"/>
      <use xlink:href="#DejaVuSans-304" transform="translate(384.571289 -0.078125)"/>
      <use xlink:href="#DejaVuSans-Oblique-3bd" transform="translate(325.200195 0.015625)"/>
      <use xlink:href="#DejaVuSans-Oblique-3bc" transform="translate(382.016602 -16.390625)scale(0.7)"/>
      <use xlink:href="#DejaVuSans-2192" transform="translate(429.287109 0.015625)"/>
      <use xlink:href="#DejaVuSans-Oblique-3bd" transform="translate(513.076172 0.015625)"/>
      <use xlink:href="#DejaVuSans-Oblique-65" transform="translate(568.935547 -16.390625)scale(0.7)"/>
      <use xlink:href="#DejaVuSans-2b" transform="translate(634.21875 0.015625)"/>
      <use xlink:href="#DejaVuSans-304" transform="translate(796.861328 -0.078125)"/>
      <use xlink:href="#DejaVuSans-Oblique-3bd" transform="translate(737.490234 0.015625)"/>
      <use xlink:href="#DejaVuSans-Oblique-65" transform="translate(794.306641 -16.390625)scale(0.7)"/>
      <use xlink:href="#DejaVuSans-5d" transform="translate(840.107422 0.015625)"/>
     </g>
    </g>
   </g>
  </g>
 </g>
 <defs>
  <clipPath id="pebe1e4c1cc">
   <rect x="51.378125" y="24.12" width="334.8" height="332.64"/>
  </clipPath>
 </defs>
</svg>
